<svg xmlns="http://www.w3.org/2000/svg" width="1366" height="768" viewBox="0 0 1366 768">
  <g id="Group_798" data-name="Group 798" transform="translate(-15424 -914)">
    <rect id="Rectangle_528" data-name="Rectangle 528" width="1366" height="768" transform="translate(15424 914)" fill="#0281e1"/>
    <g id="Group_790" data-name="Group 790" transform="translate(15953 849)">
      <circle id="Ellipse_18" data-name="Ellipse 18" cx="23" cy="23" r="23" transform="translate(-20 203)" fill="#0d19a3" opacity="0.29"/>
      <circle id="Ellipse_16" data-name="Ellipse 16" cx="15" cy="15" r="15" transform="translate(8 150)" fill="#6cdaee" opacity="0.6"/>
      <circle id="Ellipse_17" data-name="Ellipse 17" cx="8.5" cy="8.5" r="8.5" transform="translate(21 258)" fill="#10e7dc" opacity="0.5"/>
    </g>
    <g id="Group_791" data-name="Group 791" transform="translate(16218 1451)">
      <ellipse id="Ellipse_18-2" data-name="Ellipse 18" cx="31.5" cy="32" rx="31.5" ry="32" transform="translate(17 73)" fill="#0d19a3" opacity="0.29"/>
      <circle id="Ellipse_16-2" data-name="Ellipse 16" cx="20.5" cy="20.5" r="20.5" fill="#6cdaee" opacity="0.6"/>
      <circle id="Ellipse_17-2" data-name="Ellipse 17" cx="11.5" cy="11.5" r="11.5" transform="translate(0 149)" fill="#10e7dc" opacity="0.5"/>
    </g>
    <g id="Group_796" data-name="Group 796" transform="translate(15540 1279)">
      <ellipse id="Ellipse_18-3" data-name="Ellipse 18" cx="31.5" cy="32" rx="31.5" ry="32" transform="translate(17 35)" fill="#0d19a3" opacity="0.29"/>
      <circle id="Ellipse_16-3" data-name="Ellipse 16" cx="20.5" cy="20.5" r="20.5" transform="translate(0 131)" fill="#6cdaee" opacity="0.6"/>
      <circle id="Ellipse_17-3" data-name="Ellipse 17" cx="11.5" cy="11.5" r="11.5" fill="#10e7dc" opacity="0.5"/>
    </g>
    <g id="Group_794" data-name="Group 794" transform="translate(16477 1062)">
      <ellipse id="Ellipse_18-4" data-name="Ellipse 18" cx="31.5" cy="32" rx="31.5" ry="32" transform="translate(0 35)" fill="#0d19a3" opacity="0.29"/>
      <circle id="Ellipse_16-4" data-name="Ellipse 16" cx="20.5" cy="20.5" r="20.5" transform="translate(39 131)" fill="#6cdaee" opacity="0.6"/>
      <circle id="Ellipse_17-4" data-name="Ellipse 17" cx="11.5" cy="11.5" r="11.5" transform="translate(57)" fill="#10e7dc" opacity="0.5"/>
    </g>
    <g id="Group_792" data-name="Group 792" transform="translate(15940 1521)">
      <circle id="Ellipse_14" data-name="Ellipse 14" cx="8.5" cy="8.5" r="8.5" fill="#10e7dc" opacity="0.5"/>
      <circle id="Ellipse_15" data-name="Ellipse 15" cx="15" cy="15" r="15" transform="translate(17 28)" fill="#6cdaee" opacity="0.6"/>
    </g>
    <g id="Group_797" data-name="Group 797" transform="translate(15673 1004)">
      <circle id="Ellipse_14-2" data-name="Ellipse 14" cx="8.5" cy="8.5" r="8.5" fill="#10e7dc" opacity="0.5"/>
      <circle id="Ellipse_15-2" data-name="Ellipse 15" cx="15" cy="15" r="15" transform="translate(17 28)" fill="#6cdaee" opacity="0.6"/>
    </g>
    <g id="Group_795" data-name="Group 795" transform="translate(16595 1393)">
      <circle id="Ellipse_14-3" data-name="Ellipse 14" cx="8.5" cy="8.5" r="8.5" transform="translate(0 41)" fill="#10e7dc" opacity="0.5"/>
      <circle id="Ellipse_15-3" data-name="Ellipse 15" cx="15" cy="15" r="15" transform="translate(17)" fill="#6cdaee" opacity="0.6"/>
    </g>
    <g id="Group_793" data-name="Group 793" transform="translate(15898 849)">
      <circle id="Ellipse_14-4" data-name="Ellipse 14" cx="8.5" cy="8.5" r="8.5" transform="translate(337 133)" fill="#10e7dc" opacity="0.5"/>
      <circle id="Ellipse_15-4" data-name="Ellipse 15" cx="15" cy="15" r="15" transform="translate(354 92)" fill="#6cdaee" opacity="0.6"/>
    </g>
  </g>
</svg>
