<svg id="Group_803" data-name="Group 803" xmlns="http://www.w3.org/2000/svg" xmlns:xlink="http://www.w3.org/1999/xlink" width="1366" height="768" viewBox="0 0 1366 768">
  <defs>
    <clipPath id="clip-path">
      <rect id="Rectangle_528" data-name="Rectangle 528" width="1366" height="768" transform="translate(18083 1846)" fill="#0281e1"/>
    </clipPath>
  </defs>
  <rect id="Rectangle_529" data-name="Rectangle 529" width="1366" height="768" fill="#0281e1"/>
  <g id="Mask_Group_3" data-name="Mask Group 3" transform="translate(-18083 -1846)" clip-path="url(#clip-path)">
    <g id="Group_791" data-name="Group 791" transform="translate(18447 2425)">
      <ellipse id="Ellipse_18" data-name="Ellipse 18" cx="31.5" cy="32" rx="31.5" ry="32" transform="translate(17 73)" fill="#0d19a3" opacity="0.29"/>
      <circle id="Ellipse_16" data-name="Ellipse 16" cx="20.5" cy="20.5" r="20.5" fill="#6cdaee" opacity="0.6"/>
      <circle id="Ellipse_17" data-name="Ellipse 17" cx="11.5" cy="11.5" r="11.5" transform="translate(0 149)" fill="#10e7dc" opacity="0.5"/>
    </g>
    <g id="Group_794" data-name="Group 794" transform="translate(19004 1819)">
      <ellipse id="Ellipse_18-2" data-name="Ellipse 18" cx="31.5" cy="32" rx="31.5" ry="32" transform="translate(0 35)" fill="#0d19a3" opacity="0.29"/>
      <circle id="Ellipse_16-2" data-name="Ellipse 16" cx="20.5" cy="20.5" r="20.5" transform="translate(39 131)" fill="#6cdaee" opacity="0.6"/>
      <circle id="Ellipse_17-2" data-name="Ellipse 17" cx="11.5" cy="11.5" r="11.5" transform="translate(57)" fill="#10e7dc" opacity="0.5"/>
    </g>
    <g id="Group_802" data-name="Group 802" transform="translate(19348 2483)">
      <ellipse id="Ellipse_18-3" data-name="Ellipse 18" cx="31.5" cy="32" rx="31.5" ry="32" transform="translate(0 35)" fill="#0d19a3" opacity="0.29"/>
      <circle id="Ellipse_16-3" data-name="Ellipse 16" cx="20.5" cy="20.5" r="20.5" transform="translate(39 131)" fill="#6cdaee" opacity="0.6"/>
      <circle id="Ellipse_17-3" data-name="Ellipse 17" cx="11.5" cy="11.5" r="11.5" transform="translate(57)" fill="#10e7dc" opacity="0.5"/>
    </g>
    <g id="Group_792" data-name="Group 792" transform="translate(18128 2511)">
      <circle id="Ellipse_14" data-name="Ellipse 14" cx="8.5" cy="8.5" r="8.5" fill="#10e7dc" opacity="0.5"/>
      <circle id="Ellipse_15" data-name="Ellipse 15" cx="15" cy="15" r="15" transform="translate(17 28)" fill="#6cdaee" opacity="0.6"/>
    </g>
    <g id="Group_797" data-name="Group 797" transform="translate(19004 2465)">
      <circle id="Ellipse_14-2" data-name="Ellipse 14" cx="8.5" cy="8.5" r="8.5" fill="#10e7dc" opacity="0.5"/>
      <circle id="Ellipse_15-2" data-name="Ellipse 15" cx="15" cy="15" r="15" transform="translate(17 28)" fill="#6cdaee" opacity="0.6"/>
    </g>
    <g id="Group_795" data-name="Group 795" transform="translate(19348 2013)">
      <circle id="Ellipse_14-3" data-name="Ellipse 14" cx="8.5" cy="8.5" r="8.5" transform="translate(0 41)" fill="#10e7dc" opacity="0.5"/>
      <circle id="Ellipse_15-3" data-name="Ellipse 15" cx="15" cy="15" r="15" transform="translate(17)" fill="#6cdaee" opacity="0.6"/>
    </g>
    <g id="Group_790" data-name="Group 790" transform="translate(18090 1778)">
      <circle id="Ellipse_18-4" data-name="Ellipse 18" cx="23" cy="23" r="23" transform="translate(-20 203)" fill="#0d19a3" opacity="0.29"/>
      <circle id="Ellipse_16-4" data-name="Ellipse 16" cx="15" cy="15" r="15" transform="translate(8 150)" fill="#6cdaee" opacity="0.6"/>
      <circle id="Ellipse_17-4" data-name="Ellipse 17" cx="8.5" cy="8.5" r="8.5" transform="translate(21 258)" fill="#10e7dc" opacity="0.5"/>
    </g>
    <g id="Group_796" data-name="Group 796" transform="translate(18766 2133)">
      <ellipse id="Ellipse_18-5" data-name="Ellipse 18" cx="31.5" cy="32" rx="31.5" ry="32" transform="translate(17 35)" fill="#0d19a3" opacity="0.29"/>
      <circle id="Ellipse_16-5" data-name="Ellipse 16" cx="20.5" cy="20.5" r="20.5" transform="translate(0 131)" fill="#6cdaee" opacity="0.6"/>
      <circle id="Ellipse_17-5" data-name="Ellipse 17" cx="11.5" cy="11.5" r="11.5" fill="#10e7dc" opacity="0.5"/>
    </g>
    <g id="Group_793" data-name="Group 793" transform="translate(18103 1778)">
      <circle id="Ellipse_14-4" data-name="Ellipse 14" cx="8.5" cy="8.5" r="8.5" transform="translate(337 133)" fill="#10e7dc" opacity="0.5"/>
      <circle id="Ellipse_15-4" data-name="Ellipse 15" cx="15" cy="15" r="15" transform="translate(354 92)" fill="#6cdaee" opacity="0.6"/>
    </g>
  </g>
</svg>
