<svg xmlns="http://www.w3.org/2000/svg" width="81" height="62" viewBox="0 0 81 62">
  <g id="Group_787" data-name="Group 787" transform="translate(-18113 -516)">
    <circle id="Ellipse_20" data-name="Ellipse 20" cx="2.5" cy="2.5" r="2.5" transform="translate(18113 516)" fill="rgba(109,109,109,0.7)"/>
    <circle id="Ellipse_20-2" data-name="Ellipse 20" cx="2.5" cy="2.5" r="2.5" transform="translate(18132 516)" fill="rgba(109,109,109,0.7)"/>
    <circle id="Ellipse_20-3" data-name="Ellipse 20" cx="2.5" cy="2.5" r="2.5" transform="translate(18151 516)" fill="rgba(109,109,109,0.7)"/>
    <circle id="Ellipse_20-4" data-name="Ellipse 20" cx="2.5" cy="2.5" r="2.5" transform="translate(18170 516)" fill="rgba(109,109,109,0.7)"/>
    <circle id="Ellipse_20-5" data-name="Ellipse 20" cx="2.5" cy="2.5" r="2.5" transform="translate(18189 516)" fill="rgba(109,109,109,0.7)"/>
    <circle id="Ellipse_20-6" data-name="Ellipse 20" cx="2.5" cy="2.5" r="2.5" transform="translate(18113 535)" fill="rgba(109,109,109,0.7)"/>
    <circle id="Ellipse_20-7" data-name="Ellipse 20" cx="2.5" cy="2.5" r="2.5" transform="translate(18132 535)" fill="rgba(109,109,109,0.7)"/>
    <circle id="Ellipse_20-8" data-name="Ellipse 20" cx="2.5" cy="2.5" r="2.5" transform="translate(18151 535)" fill="rgba(109,109,109,0.7)"/>
    <circle id="Ellipse_20-9" data-name="Ellipse 20" cx="2.5" cy="2.5" r="2.5" transform="translate(18170 535)" fill="rgba(109,109,109,0.7)"/>
    <circle id="Ellipse_20-10" data-name="Ellipse 20" cx="2.5" cy="2.5" r="2.5" transform="translate(18189 535)" fill="rgba(109,109,109,0.7)"/>
    <circle id="Ellipse_20-11" data-name="Ellipse 20" cx="2.5" cy="2.5" r="2.5" transform="translate(18113 554)" fill="rgba(109,109,109,0.7)"/>
    <circle id="Ellipse_20-12" data-name="Ellipse 20" cx="2.5" cy="2.5" r="2.5" transform="translate(18132 554)" fill="rgba(109,109,109,0.7)"/>
    <circle id="Ellipse_20-13" data-name="Ellipse 20" cx="2.5" cy="2.5" r="2.5" transform="translate(18151 554)" fill="rgba(109,109,109,0.7)"/>
    <circle id="Ellipse_20-14" data-name="Ellipse 20" cx="2.5" cy="2.5" r="2.5" transform="translate(18170 554)" fill="rgba(109,109,109,0.7)"/>
    <circle id="Ellipse_20-15" data-name="Ellipse 20" cx="2.5" cy="2.5" r="2.5" transform="translate(18189 554)" fill="rgba(109,109,109,0.7)"/>
    <circle id="Ellipse_20-16" data-name="Ellipse 20" cx="2.5" cy="2.5" r="2.5" transform="translate(18113 573)" fill="rgba(109,109,109,0.7)"/>
    <circle id="Ellipse_20-17" data-name="Ellipse 20" cx="2.5" cy="2.5" r="2.5" transform="translate(18132 573)" fill="rgba(109,109,109,0.7)"/>
    <circle id="Ellipse_20-18" data-name="Ellipse 20" cx="2.5" cy="2.5" r="2.5" transform="translate(18151 573)" fill="rgba(109,109,109,0.7)"/>
    <circle id="Ellipse_20-19" data-name="Ellipse 20" cx="2.5" cy="2.5" r="2.5" transform="translate(18170 573)" fill="rgba(109,109,109,0.7)"/>
    <circle id="Ellipse_20-20" data-name="Ellipse 20" cx="2.5" cy="2.5" r="2.5" transform="translate(18189 573)" fill="rgba(109,109,109,0.7)"/>
  </g>
</svg>
